<svg width="51" height="62" viewBox="0 0 51 62" fill="none" xmlns="http://www.w3.org/2000/svg">
<path d="M10 3.81818C10 2.81403 10.8954 2 12 2C13.1046 2 14 2.81403 14 3.81818V4.72727C14 5.22935 14.4477 5.63636 15 5.63636H18C18.5523 5.63636 19 6.04338 19 6.54545V9.27273C19 9.77482 18.5523 10.1818 18 10.1818H17C15.8954 10.1818 15 10.9958 15 12C15 13.0042 15.8954 13.8182 17 13.8182H18C18.5523 13.8182 19 14.2252 19 14.7273V17.4545C19 17.9566 18.5523 18.3636 18 18.3636H15C14.4477 18.3636 14 18.8182 14 19.2727V20.1818C14 21.0909 13.1046 22 12 22C10.8954 22 10 21.0909 10 20.1818V19.2727C10 18.8182 9.5523 18.3636 9 18.3636H6C5.4477 18.3636 5 17.9566 5 17.4545V14.7273C5 14.2252 4.5523 13.8182 4 13.8182H3C1.8954 13.8182 1 13.0042 1 12C1 10.9958 1.8954 10.1818 3 10.1818H4C4.5523 10.1818 5 9.77482 5 9.27273V6.54545C5 6.04338 5.4477 5.63636 6 5.63636H9C9.5523 5.63636 10 5.22935 10 4.72727V3.81818Z" stroke="#9BA3AC" stroke-linecap="round" stroke-linejoin="round"/>
<path d="M44.2199 22.5345L42.8939 22.8289C39.6075 23.5943 37.0706 26.1849 36.3211 29.5408L36.0328 30.895C35.8022 32.0136 34.3031 32.1314 33.8419 31.0716L26.8655 14.174C26.6349 13.5264 27.2115 12.9376 27.788 13.1731L44.3929 20.2972C45.4884 20.7682 45.3154 22.299 44.2199 22.5345Z" fill="#FFC857"/>
<path d="M43.4123 20.4145L42.0862 20.7089C38.7999 21.4743 36.263 24.0649 35.5135 27.4209L35.2252 28.775C34.9946 29.8937 33.4955 30.0114 33.0343 28.9516L26.0579 11.9952C25.8273 11.4064 26.4039 10.8177 26.9804 11.0532L43.5853 18.1772C44.6808 18.6482 44.5078 20.179 43.4123 20.4145Z" stroke="#292C32" stroke-miterlimit="10"/>
<path d="M38.3078 22.9883C44.9422 29.4162 53.8275 46.0125 36.2935 60.9749" stroke="#292C32" stroke-linecap="round"/>
</svg>
