<svg width="51" height="62" viewBox="0 0 51 62" fill="none" xmlns="http://www.w3.org/2000/svg">
<path d="M13 4C13 2.89543 12.1046 2 11 2C9.89543 2 9 2.89543 9 4V5C9 5.55228 8.55228 6 8 6H5C4.44772 6 4 6.44772 4 7V10C4 10.5523 4.44772 11 5 11H6C7.10457 11 8 11.8954 8 13C8 14.1046 7.10457 15 6 15H5C4.44772 15 4 15.4477 4 16V19C4 19.5523 4.44772 20 5 20H8C8.55228 20 9 19.5523 9 19V18C9 16.8954 9.89543 16 11 16C12.1046 16 13 16.8954 13 18V19C13 19.5523 13.4477 20 14 20H17C17.5523 20 18 19.5523 18 19V16C18 15.4477 18.4477 15 19 15H20C21.1046 15 22 14.1046 22 13C22 11.8954 21.1046 11 20 11H19C18.4477 11 18 10.5523 18 10V7C18 6.44772 17.5523 6 17 6H14C13.4477 6 13 5.55228 13 5V4Z" fill="#9BA3AC" stroke="#9BA3AC" stroke-linecap="round" stroke-linejoin="round"/>
<path d="M44.2199 22.5341L42.8939 22.8285C39.6075 23.5939 37.0706 26.1845 36.3211 29.5404L36.0328 30.8946C35.8022 32.0132 34.3031 32.131 33.8419 31.0712L26.8655 14.1736C26.6349 13.526 27.2115 12.9372 27.788 13.1727L44.3929 20.2968C45.4884 20.7678 45.3154 22.2986 44.2199 22.5341Z" fill="#FFC857"/>
<path d="M43.4123 20.4145L42.0862 20.7089C38.7999 21.4743 36.263 24.0649 35.5135 27.4209L35.2252 28.775C34.9946 29.8937 33.4955 30.0114 33.0343 28.9516L26.0579 11.9952C25.8273 11.4064 26.4039 10.8177 26.9804 11.0532L43.5853 18.1772C44.6808 18.6482 44.5078 20.179 43.4123 20.4145Z" stroke="#292C32" stroke-miterlimit="10"/>
<path d="M38.3076 22.9881C44.942 29.416 53.8273 46.0123 36.2933 60.9747" stroke="#292C32" stroke-linecap="round"/>
</svg>
