<?xml version="1.0" encoding="UTF-8"?>
<!DOCTYPE svg PUBLIC "-//W3C//DTD SVG 1.1//EN" "http://www.w3.org/Graphics/SVG/1.1/DTD/svg11.dtd">
<svg xmlns="http://www.w3.org/2000/svg" version="1.1" width="128px" height="128px" style="shape-rendering:geometricPrecision; text-rendering:geometricPrecision; image-rendering:optimizeQuality; fill-rule:evenodd; clip-rule:evenodd" xmlns:xlink="http://www.w3.org/1999/xlink">
<g><path style="opacity:0.979" fill="#ea4c89" d="M 14.5,-0.5 C 47.5,-0.5 80.5,-0.5 113.5,-0.5C 120.103,1.77008 124.769,6.10342 127.5,12.5C 127.5,46.8333 127.5,81.1667 127.5,115.5C 125.981,118.021 124.314,120.521 122.5,123C 119.901,124.795 117.234,126.295 114.5,127.5C 80.8333,127.5 47.1667,127.5 13.5,127.5C 6.05945,125.06 1.39278,120.06 -0.5,112.5C -0.5,80.1667 -0.5,47.8333 -0.5,15.5C 1.42687,7.24105 6.42687,1.90771 14.5,-0.5 Z"/></g>
<g><path style="opacity:1" fill="#fefcfd" d="M 45.5,19.5 C 45.5,22.5 45.5,25.5 45.5,28.5C 51.5,28.5 57.5,28.5 63.5,28.5C 63.5,38.5 63.5,48.5 63.5,58.5C 57.5,58.5 51.5,58.5 45.5,58.5C 45.5,63.1667 45.5,67.8333 45.5,72.5C 42.5,72.5 39.5,72.5 36.5,72.5C 36.5,68.1667 36.5,63.8333 36.5,59.5C 30.8333,59.5 25.1667,59.5 19.5,59.5C 19.5,49.1667 19.5,38.8333 19.5,28.5C 25.5,28.5 31.5,28.5 37.5,28.5C 37.5,25.5 37.5,22.5 37.5,19.5C 40.1667,19.5 42.8333,19.5 45.5,19.5 Z"/></g>
<g><path style="opacity:1" fill="#fefbfc" d="M 72.5,23.5 C 94.503,19.5169 104.836,28.5169 103.5,50.5C 100.5,50.5 97.5,50.5 94.5,50.5C 94.6655,46.4862 94.4988,42.4862 94,38.5C 92.7494,35.6193 90.5827,33.786 87.5,33C 82.5111,32.5007 77.5111,32.3341 72.5,32.5C 72.5,29.5 72.5,26.5 72.5,23.5 Z"/></g>
<g><path style="opacity:1" fill="#f2aabf" d="M 45.5,19.5 C 42.8333,19.5 40.1667,19.5 37.5,19.5C 37.5,22.5 37.5,25.5 37.5,28.5C 31.5,28.5 25.5,28.5 19.5,28.5C 24.9753,27.5111 30.642,27.1778 36.5,27.5C 36.5,24.5 36.5,21.5 36.5,18.5C 39.7131,18.19 42.7131,18.5233 45.5,19.5 Z"/></g>
<g><path style="opacity:1" fill="#f2a7bd" d="M 45.5,19.5 C 46.4731,21.9479 46.8064,24.6146 46.5,27.5C 52.358,27.1778 58.0247,27.5111 63.5,28.5C 57.5,28.5 51.5,28.5 45.5,28.5C 45.5,25.5 45.5,22.5 45.5,19.5 Z"/></g>
<g><path style="opacity:1" fill="#ea528c" d="M 28.5,37.5 C 31.1667,37.5 33.8333,37.5 36.5,37.5C 36.5,41.8333 36.5,46.1667 36.5,50.5C 33.8333,50.5 31.1667,50.5 28.5,50.5C 28.5,46.1667 28.5,41.8333 28.5,37.5 Z"/></g>
<g><path style="opacity:1" fill="#f3afc2" d="M 54.5,37.5 C 51.8333,37.5 49.1667,37.5 46.5,37.5C 46.5,41.5 46.5,45.5 46.5,49.5C 49.1667,49.5 51.8333,49.5 54.5,49.5C 51.7131,50.4767 48.7131,50.81 45.5,50.5C 45.5,45.8333 45.5,41.1667 45.5,36.5C 48.7131,36.19 51.7131,36.5233 54.5,37.5 Z"/></g>
<g><path style="opacity:1" fill="#e94c88" d="M 54.5,37.5 C 54.5,41.5 54.5,45.5 54.5,49.5C 51.8333,49.5 49.1667,49.5 46.5,49.5C 46.5,45.5 46.5,41.5 46.5,37.5C 49.1667,37.5 51.8333,37.5 54.5,37.5 Z"/></g>
<g><path style="opacity:1" fill="#fef9fa" d="M 80.5,54.5 C 83.8984,54.1796 87.2317,54.513 90.5,55.5C 97.0289,71.0866 103.362,86.7533 109.5,102.5C 106.167,103.833 102.833,103.833 99.5,102.5C 97.9265,98.6083 96.2598,94.7749 94.5,91C 88.5,90.3333 82.5,90.3333 76.5,91C 74.7402,94.7749 73.0735,98.6083 71.5,102.5C 68.1667,103.833 64.8333,103.833 61.5,102.5C 68.2316,86.6348 74.5649,70.6348 80.5,54.5 Z"/></g>
<g><path style="opacity:1" fill="#f6c5d2" d="M 63.5,58.5 C 58.0247,59.4889 52.358,59.8222 46.5,59.5C 46.8182,64.0323 46.4849,68.3656 45.5,72.5C 45.5,67.8333 45.5,63.1667 45.5,58.5C 51.5,58.5 57.5,58.5 63.5,58.5 Z"/></g>
<g><path style="opacity:1" fill="#ea548c" d="M 90.5,80.5 C 87.2869,80.81 84.2869,80.4767 81.5,79.5C 82.2488,75.9176 83.5821,72.5843 85.5,69.5C 87.7458,72.9041 89.4124,76.5708 90.5,80.5 Z"/></g>
<g><path style="opacity:1" fill="#fefbfb" d="M 23.5,76.5 C 26.5,76.5 29.5,76.5 32.5,76.5C 31.8024,82.0606 32.8024,87.2273 35.5,92C 36.6721,92.4186 37.6721,93.0853 38.5,94C 43.8229,94.4994 49.1563,94.666 54.5,94.5C 54.5,97.5 54.5,100.5 54.5,103.5C 32.497,107.483 22.1637,98.4831 23.5,76.5 Z"/></g>
<g><path style="opacity:1" fill="#f1a3ba" d="M 81.5,79.5 C 84.2869,80.4767 87.2869,80.81 90.5,80.5C 87.3132,81.8056 83.9798,81.8056 80.5,80.5C 80.6236,79.8933 80.9569,79.56 81.5,79.5 Z"/></g>
</svg>
