<?xml version="1.0" encoding="UTF-8"?>
<!-- Generator: Adobe Illustrator 24.0.1, SVG Export Plug-In . SVG Version: 6.00 Build 0)  -->
<svg version="1.1" id="图层_1" xmlns="http://www.w3.org/2000/svg" xmlns:xlink="http://www.w3.org/1999/xlink" x="0px" y="0px" viewBox="0 0 108 108" style="enable-background:new 0 0 108 108;" xml:space="preserve">
<style type="text/css">
	.st0{fill:#096DD9;}
	.st1{fill:#717071;}
	.st2{fill:#ED780A;}
</style>
<g>
	<polygon class="st0" points="101.3,33 58.3,57.7 58.3,74.8 81.1,61.2 58.3,90.1 58.3,90.2 58.3,107.5 101.3,82.6 101.3,65.5    81.6,76.8 101.3,49.5  "/>
	<g>
		<polygon class="st1" points="6.7,32.9 6.7,82.3 17.1,88.4 17.1,55.4 39.3,68 39.3,101.3 49.9,107.4 49.9,57.8   "/>
		<polygon class="st1" points="23.5,69.4 23.5,92.2 31.8,97 31.8,74.1   "/>
	</g>
	<polygon class="st2" points="97.4,25.3 54,0.5 11,25.4 24.2,32.9 33.4,27.3 58.3,41 69.2,34.8 44.2,21.1 54.2,15.2 84.7,32.6  "/>
</g>
</svg>